<mxfile host="Electron" modified="2023-08-21T03:39:39.235Z" agent="Mozilla/5.0 (X11; Linux x86_64) AppleWebKit/537.36 (KHTML, like Gecko) draw.io/21.3.7 Chrome/112.0.5615.204 Electron/24.5.0 Safari/537.36" etag="6-nW2ZkUzoQxyTUvBnLL" version="21.3.7" type="device">
  <diagram name="Página-1" id="Jkc078h2hcOx-05Bufs_">
    <mxGraphModel dx="880" dy="570" grid="1" gridSize="10" guides="1" tooltips="1" connect="1" arrows="1" fold="1" page="1" pageScale="1" pageWidth="827" pageHeight="1169" math="0" shadow="0">
      <root>
        <mxCell id="0" />
        <mxCell id="1" parent="0" />
        <mxCell id="MRH6tuEuY3I-kxTHl0fX-1" value="Fundação Salomão" style="strokeWidth=1;shadow=0;dashed=0;align=center;html=1;shape=mxgraph.mockup.containers.window;align=left;verticalAlign=top;spacingLeft=8;strokeColor2=#008cff;strokeColor3=#c4c4c4;fontColor=#666666;mainText=;fontSize=17;labelBackgroundColor=none;whiteSpace=wrap;" parent="1" vertex="1">
          <mxGeometry x="70" y="40" width="730" height="510" as="geometry" />
        </mxCell>
        <mxCell id="MRH6tuEuY3I-kxTHl0fX-2" value="" style="strokeWidth=1;shadow=0;dashed=0;align=center;html=1;shape=mxgraph.mockup.forms.rrect;rSize=0;strokeColor=#999999;" parent="1" vertex="1">
          <mxGeometry x="170" y="90" width="600" height="30" as="geometry" />
        </mxCell>
        <mxCell id="MRH6tuEuY3I-kxTHl0fX-3" value="Alunos" style="strokeColor=inherit;fillColor=inherit;gradientColor=inherit;strokeWidth=1;shadow=0;dashed=0;align=center;html=1;shape=mxgraph.mockup.forms.rrect;rSize=0;fontSize=17;fontColor=#666666;whiteSpace=wrap;" parent="MRH6tuEuY3I-kxTHl0fX-2" vertex="1">
          <mxGeometry width="100" height="30" as="geometry" />
        </mxCell>
        <mxCell id="MRH6tuEuY3I-kxTHl0fX-4" value="Professores" style="strokeColor=inherit;fillColor=inherit;gradientColor=inherit;strokeWidth=1;shadow=0;dashed=0;align=center;html=1;shape=mxgraph.mockup.forms.rrect;rSize=0;fontSize=17;fontColor=#666666;whiteSpace=wrap;" parent="MRH6tuEuY3I-kxTHl0fX-2" vertex="1">
          <mxGeometry x="100" width="100" height="30" as="geometry" />
        </mxCell>
        <mxCell id="MRH6tuEuY3I-kxTHl0fX-5" value="Matérias" style="strokeColor=inherit;fillColor=inherit;gradientColor=inherit;strokeWidth=1;shadow=0;dashed=0;align=center;html=1;shape=mxgraph.mockup.forms.rrect;rSize=0;fontSize=17;fontColor=#666666;whiteSpace=wrap;" parent="MRH6tuEuY3I-kxTHl0fX-2" vertex="1">
          <mxGeometry x="200" width="100" height="30" as="geometry" />
        </mxCell>
        <mxCell id="MRH6tuEuY3I-kxTHl0fX-6" value="Notas" style="strokeColor=inherit;fillColor=inherit;gradientColor=inherit;strokeWidth=1;shadow=0;dashed=0;align=center;html=1;shape=mxgraph.mockup.forms.rrect;rSize=0;fontSize=17;fontColor=#666666;whiteSpace=wrap;" parent="MRH6tuEuY3I-kxTHl0fX-2" vertex="1">
          <mxGeometry x="300" width="100" height="30" as="geometry" />
        </mxCell>
        <mxCell id="MRH6tuEuY3I-kxTHl0fX-7" value="Financeiro" style="strokeColor=inherit;fillColor=inherit;gradientColor=inherit;strokeWidth=1;shadow=0;dashed=0;align=center;html=1;shape=mxgraph.mockup.forms.rrect;rSize=0;fontSize=17;fontColor=#666666;whiteSpace=wrap;" parent="MRH6tuEuY3I-kxTHl0fX-2" vertex="1">
          <mxGeometry x="400" width="100" height="30" as="geometry" />
        </mxCell>
        <mxCell id="MRH6tuEuY3I-kxTHl0fX-8" value="Avisos" style="strokeColor=inherit;fillColor=inherit;gradientColor=inherit;strokeWidth=1;shadow=0;dashed=0;align=center;html=1;shape=mxgraph.mockup.forms.rrect;rSize=0;fontSize=17;fontColor=#666666;whiteSpace=wrap;" parent="MRH6tuEuY3I-kxTHl0fX-2" vertex="1">
          <mxGeometry x="500" width="100" height="30" as="geometry" />
        </mxCell>
        <mxCell id="MRH6tuEuY3I-kxTHl0fX-11" value="HOME" style="verticalLabelPosition=bottom;shadow=0;dashed=0;align=center;html=1;verticalAlign=top;strokeWidth=1;shape=mxgraph.mockup.misc.help_icon;" parent="1" vertex="1">
          <mxGeometry x="100" y="80" width="32" height="32" as="geometry" />
        </mxCell>
        <mxCell id="nSienLtsKH12aeZlyGIM-83" value="" style="group" parent="1" vertex="1" connectable="0">
          <mxGeometry x="100" y="170" width="680" height="340" as="geometry" />
        </mxCell>
        <mxCell id="nSienLtsKH12aeZlyGIM-58" value="" style="shape=table;html=1;whiteSpace=wrap;startSize=0;container=1;collapsible=0;childLayout=tableLayout;strokeWidth=2;" parent="nSienLtsKH12aeZlyGIM-83" vertex="1">
          <mxGeometry width="680" height="150" as="geometry" />
        </mxCell>
        <mxCell id="nSienLtsKH12aeZlyGIM-59" value="" style="shape=tableRow;horizontal=0;startSize=0;swimlaneHead=0;swimlaneBody=0;top=0;left=0;bottom=0;right=0;collapsible=0;dropTarget=0;fillColor=none;points=[[0,0.5],[1,0.5]];portConstraint=eastwest;" parent="nSienLtsKH12aeZlyGIM-58" vertex="1">
          <mxGeometry width="680" height="50" as="geometry" />
        </mxCell>
        <mxCell id="nSienLtsKH12aeZlyGIM-60" value="Professor" style="shape=partialRectangle;html=1;whiteSpace=wrap;connectable=0;fillColor=none;top=0;left=0;bottom=0;right=0;overflow=hidden;fontStyle=1" parent="nSienLtsKH12aeZlyGIM-59" vertex="1">
          <mxGeometry width="300" height="50" as="geometry">
            <mxRectangle width="300" height="50" as="alternateBounds" />
          </mxGeometry>
        </mxCell>
        <mxCell id="nSienLtsKH12aeZlyGIM-61" value="Ações" style="shape=partialRectangle;html=1;whiteSpace=wrap;connectable=0;fillColor=none;top=0;left=0;bottom=0;right=0;overflow=hidden;fontStyle=1" parent="nSienLtsKH12aeZlyGIM-59" vertex="1">
          <mxGeometry x="300" width="380" height="50" as="geometry">
            <mxRectangle width="380" height="50" as="alternateBounds" />
          </mxGeometry>
        </mxCell>
        <mxCell id="nSienLtsKH12aeZlyGIM-62" value="" style="shape=tableRow;horizontal=0;startSize=0;swimlaneHead=0;swimlaneBody=0;top=0;left=0;bottom=0;right=0;collapsible=0;dropTarget=0;fillColor=none;points=[[0,0.5],[1,0.5]];portConstraint=eastwest;" parent="nSienLtsKH12aeZlyGIM-58" vertex="1">
          <mxGeometry y="50" width="680" height="50" as="geometry" />
        </mxCell>
        <mxCell id="nSienLtsKH12aeZlyGIM-63" value="NOME1" style="shape=partialRectangle;html=1;whiteSpace=wrap;connectable=0;fillColor=none;top=0;left=0;bottom=0;right=0;overflow=hidden;" parent="nSienLtsKH12aeZlyGIM-62" vertex="1">
          <mxGeometry width="300" height="50" as="geometry">
            <mxRectangle width="300" height="50" as="alternateBounds" />
          </mxGeometry>
        </mxCell>
        <mxCell id="nSienLtsKH12aeZlyGIM-64" value="" style="shape=partialRectangle;html=1;whiteSpace=wrap;connectable=0;fillColor=none;top=0;left=0;bottom=0;right=0;overflow=hidden;" parent="nSienLtsKH12aeZlyGIM-62" vertex="1">
          <mxGeometry x="300" width="380" height="50" as="geometry">
            <mxRectangle width="380" height="50" as="alternateBounds" />
          </mxGeometry>
        </mxCell>
        <mxCell id="nSienLtsKH12aeZlyGIM-65" value="" style="shape=tableRow;horizontal=0;startSize=0;swimlaneHead=0;swimlaneBody=0;top=0;left=0;bottom=0;right=0;collapsible=0;dropTarget=0;fillColor=none;points=[[0,0.5],[1,0.5]];portConstraint=eastwest;" parent="nSienLtsKH12aeZlyGIM-58" vertex="1">
          <mxGeometry y="100" width="680" height="50" as="geometry" />
        </mxCell>
        <mxCell id="nSienLtsKH12aeZlyGIM-66" value="NOME2" style="shape=partialRectangle;html=1;whiteSpace=wrap;connectable=0;fillColor=none;top=0;left=0;bottom=0;right=0;overflow=hidden;" parent="nSienLtsKH12aeZlyGIM-65" vertex="1">
          <mxGeometry width="300" height="50" as="geometry">
            <mxRectangle width="300" height="50" as="alternateBounds" />
          </mxGeometry>
        </mxCell>
        <mxCell id="nSienLtsKH12aeZlyGIM-67" value="" style="shape=partialRectangle;html=1;whiteSpace=wrap;connectable=0;fillColor=none;top=0;left=0;bottom=0;right=0;overflow=hidden;" parent="nSienLtsKH12aeZlyGIM-65" vertex="1">
          <mxGeometry x="300" width="380" height="50" as="geometry">
            <mxRectangle width="380" height="50" as="alternateBounds" />
          </mxGeometry>
        </mxCell>
        <mxCell id="nSienLtsKH12aeZlyGIM-69" value="" style="shape=table;html=1;whiteSpace=wrap;startSize=0;container=1;collapsible=0;childLayout=tableLayout;strokeWidth=2;" parent="nSienLtsKH12aeZlyGIM-83" vertex="1">
          <mxGeometry y="149.99603174603175" width="680" height="199.53571428571382" as="geometry" />
        </mxCell>
        <mxCell id="nSienLtsKH12aeZlyGIM-70" value="" style="shape=tableRow;horizontal=0;startSize=0;swimlaneHead=0;swimlaneBody=0;top=0;left=0;bottom=0;right=0;collapsible=0;dropTarget=0;fillColor=none;points=[[0,0.5],[1,0.5]];portConstraint=eastwest;" parent="nSienLtsKH12aeZlyGIM-69" vertex="1">
          <mxGeometry width="680" height="50" as="geometry" />
        </mxCell>
        <mxCell id="nSienLtsKH12aeZlyGIM-71" value="NOME3" style="shape=partialRectangle;html=1;whiteSpace=wrap;connectable=0;fillColor=none;top=0;left=0;bottom=0;right=0;overflow=hidden;fontStyle=0" parent="nSienLtsKH12aeZlyGIM-70" vertex="1">
          <mxGeometry width="300" height="50" as="geometry">
            <mxRectangle width="300" height="50" as="alternateBounds" />
          </mxGeometry>
        </mxCell>
        <mxCell id="nSienLtsKH12aeZlyGIM-72" value="" style="shape=partialRectangle;html=1;whiteSpace=wrap;connectable=0;fillColor=none;top=0;left=0;bottom=0;right=0;overflow=hidden;fontStyle=1" parent="nSienLtsKH12aeZlyGIM-70" vertex="1">
          <mxGeometry x="300" width="380" height="50" as="geometry">
            <mxRectangle width="380" height="50" as="alternateBounds" />
          </mxGeometry>
        </mxCell>
        <mxCell id="nSienLtsKH12aeZlyGIM-79" value="" style="shape=tableRow;horizontal=0;startSize=0;swimlaneHead=0;swimlaneBody=0;top=0;left=0;bottom=0;right=0;collapsible=0;dropTarget=0;fillColor=none;points=[[0,0.5],[1,0.5]];portConstraint=eastwest;" parent="nSienLtsKH12aeZlyGIM-69" vertex="1">
          <mxGeometry y="50" width="680" height="50" as="geometry" />
        </mxCell>
        <mxCell id="nSienLtsKH12aeZlyGIM-80" value="NOME4" style="shape=partialRectangle;html=1;whiteSpace=wrap;connectable=0;fillColor=none;top=0;left=0;bottom=0;right=0;overflow=hidden;" parent="nSienLtsKH12aeZlyGIM-79" vertex="1">
          <mxGeometry width="300" height="50" as="geometry">
            <mxRectangle width="300" height="50" as="alternateBounds" />
          </mxGeometry>
        </mxCell>
        <mxCell id="nSienLtsKH12aeZlyGIM-81" value="" style="shape=partialRectangle;html=1;whiteSpace=wrap;connectable=0;fillColor=none;top=0;left=0;bottom=0;right=0;overflow=hidden;" parent="nSienLtsKH12aeZlyGIM-79" vertex="1">
          <mxGeometry x="300" width="380" height="50" as="geometry">
            <mxRectangle width="380" height="50" as="alternateBounds" />
          </mxGeometry>
        </mxCell>
        <mxCell id="nSienLtsKH12aeZlyGIM-73" value="" style="shape=tableRow;horizontal=0;startSize=0;swimlaneHead=0;swimlaneBody=0;top=0;left=0;bottom=0;right=0;collapsible=0;dropTarget=0;fillColor=none;points=[[0,0.5],[1,0.5]];portConstraint=eastwest;" parent="nSienLtsKH12aeZlyGIM-69" vertex="1">
          <mxGeometry y="100" width="680" height="50" as="geometry" />
        </mxCell>
        <mxCell id="nSienLtsKH12aeZlyGIM-74" value="NOME5" style="shape=partialRectangle;html=1;whiteSpace=wrap;connectable=0;fillColor=none;top=0;left=0;bottom=0;right=0;overflow=hidden;" parent="nSienLtsKH12aeZlyGIM-73" vertex="1">
          <mxGeometry width="300" height="50" as="geometry">
            <mxRectangle width="300" height="50" as="alternateBounds" />
          </mxGeometry>
        </mxCell>
        <mxCell id="nSienLtsKH12aeZlyGIM-75" value="" style="shape=partialRectangle;html=1;whiteSpace=wrap;connectable=0;fillColor=none;top=0;left=0;bottom=0;right=0;overflow=hidden;" parent="nSienLtsKH12aeZlyGIM-73" vertex="1">
          <mxGeometry x="300" width="380" height="50" as="geometry">
            <mxRectangle width="380" height="50" as="alternateBounds" />
          </mxGeometry>
        </mxCell>
        <mxCell id="nSienLtsKH12aeZlyGIM-76" value="" style="shape=tableRow;horizontal=0;startSize=0;swimlaneHead=0;swimlaneBody=0;top=0;left=0;bottom=0;right=0;collapsible=0;dropTarget=0;fillColor=none;points=[[0,0.5],[1,0.5]];portConstraint=eastwest;" parent="nSienLtsKH12aeZlyGIM-69" vertex="1">
          <mxGeometry y="150" width="680" height="50" as="geometry" />
        </mxCell>
        <mxCell id="nSienLtsKH12aeZlyGIM-77" value="NOME6" style="shape=partialRectangle;html=1;whiteSpace=wrap;connectable=0;fillColor=none;top=0;left=0;bottom=0;right=0;overflow=hidden;" parent="nSienLtsKH12aeZlyGIM-76" vertex="1">
          <mxGeometry width="300" height="50" as="geometry">
            <mxRectangle width="300" height="50" as="alternateBounds" />
          </mxGeometry>
        </mxCell>
        <mxCell id="nSienLtsKH12aeZlyGIM-78" value="" style="shape=partialRectangle;html=1;whiteSpace=wrap;connectable=0;fillColor=none;top=0;left=0;bottom=0;right=0;overflow=hidden;" parent="nSienLtsKH12aeZlyGIM-76" vertex="1">
          <mxGeometry x="300" width="380" height="50" as="geometry">
            <mxRectangle width="380" height="50" as="alternateBounds" />
          </mxGeometry>
        </mxCell>
        <mxCell id="nSienLtsKH12aeZlyGIM-84" value="Ativo" style="strokeWidth=1;shadow=0;dashed=0;align=center;html=1;shape=mxgraph.mockup.buttons.onOffButton;gradientColor=none;strokeColor=#999999;buttonState=on;fillColor2=#008cff;fontColor=#ffffff;fontSize=17;mainText=;spacingRight=40;fontStyle=1;whiteSpace=wrap;" parent="nSienLtsKH12aeZlyGIM-83" vertex="1">
          <mxGeometry x="310" y="60" width="160" height="30" as="geometry" />
        </mxCell>
        <mxCell id="nSienLtsKH12aeZlyGIM-85" value="Inativo" style="strokeWidth=1;shadow=0;dashed=0;align=center;html=1;shape=mxgraph.mockup.buttons.onOffButton;gradientColor=none;strokeColor=#999999;buttonState=on;fillColor2=#008cff;fontColor=#ffffff;fontSize=17;mainText=;spacingRight=40;fontStyle=1;whiteSpace=wrap;" parent="nSienLtsKH12aeZlyGIM-83" vertex="1">
          <mxGeometry x="310" y="110" width="160" height="30" as="geometry" />
        </mxCell>
        <mxCell id="nSienLtsKH12aeZlyGIM-86" value="Ativo" style="strokeWidth=1;shadow=0;dashed=0;align=center;html=1;shape=mxgraph.mockup.buttons.onOffButton;gradientColor=none;strokeColor=#999999;buttonState=on;fillColor2=#008cff;fontColor=#ffffff;fontSize=17;mainText=;spacingRight=40;fontStyle=1;whiteSpace=wrap;" parent="nSienLtsKH12aeZlyGIM-83" vertex="1">
          <mxGeometry x="310" y="160" width="160" height="30" as="geometry" />
        </mxCell>
        <mxCell id="nSienLtsKH12aeZlyGIM-87" value="Inativo" style="strokeWidth=1;shadow=0;dashed=0;align=center;html=1;shape=mxgraph.mockup.buttons.onOffButton;gradientColor=none;strokeColor=#999999;buttonState=on;fillColor2=#008cff;fontColor=#ffffff;fontSize=17;mainText=;spacingRight=40;fontStyle=1;whiteSpace=wrap;" parent="nSienLtsKH12aeZlyGIM-83" vertex="1">
          <mxGeometry x="310" y="210" width="160" height="30" as="geometry" />
        </mxCell>
        <mxCell id="nSienLtsKH12aeZlyGIM-88" value="Ativo" style="strokeWidth=1;shadow=0;dashed=0;align=center;html=1;shape=mxgraph.mockup.buttons.onOffButton;gradientColor=none;strokeColor=#999999;buttonState=on;fillColor2=#008cff;fontColor=#ffffff;fontSize=17;mainText=;spacingRight=40;fontStyle=1;whiteSpace=wrap;" parent="nSienLtsKH12aeZlyGIM-83" vertex="1">
          <mxGeometry x="310" y="260" width="160" height="30" as="geometry" />
        </mxCell>
        <mxCell id="nSienLtsKH12aeZlyGIM-90" value="Editar" style="strokeWidth=1;shadow=0;dashed=0;align=center;html=1;shape=mxgraph.mockup.buttons.button;strokeColor=#666666;fontColor=#ffffff;mainText=;buttonStyle=round;fontSize=17;fontStyle=1;fillColor=#008cff;whiteSpace=wrap;" parent="nSienLtsKH12aeZlyGIM-83" vertex="1">
          <mxGeometry x="510" y="60" width="150" height="30" as="geometry" />
        </mxCell>
        <mxCell id="nSienLtsKH12aeZlyGIM-91" value="Editar" style="strokeWidth=1;shadow=0;dashed=0;align=center;html=1;shape=mxgraph.mockup.buttons.button;strokeColor=#666666;fontColor=#ffffff;mainText=;buttonStyle=round;fontSize=17;fontStyle=1;fillColor=#008cff;whiteSpace=wrap;" parent="nSienLtsKH12aeZlyGIM-83" vertex="1">
          <mxGeometry x="510" y="110" width="150" height="30" as="geometry" />
        </mxCell>
        <mxCell id="nSienLtsKH12aeZlyGIM-92" value="Editar" style="strokeWidth=1;shadow=0;dashed=0;align=center;html=1;shape=mxgraph.mockup.buttons.button;strokeColor=#666666;fontColor=#ffffff;mainText=;buttonStyle=round;fontSize=17;fontStyle=1;fillColor=#008cff;whiteSpace=wrap;" parent="nSienLtsKH12aeZlyGIM-83" vertex="1">
          <mxGeometry x="510" y="160" width="150" height="30" as="geometry" />
        </mxCell>
        <mxCell id="nSienLtsKH12aeZlyGIM-93" value="Editar" style="strokeWidth=1;shadow=0;dashed=0;align=center;html=1;shape=mxgraph.mockup.buttons.button;strokeColor=#666666;fontColor=#ffffff;mainText=;buttonStyle=round;fontSize=17;fontStyle=1;fillColor=#008cff;whiteSpace=wrap;" parent="nSienLtsKH12aeZlyGIM-83" vertex="1">
          <mxGeometry x="510" y="210" width="150" height="30" as="geometry" />
        </mxCell>
        <mxCell id="nSienLtsKH12aeZlyGIM-96" value="Editar" style="strokeWidth=1;shadow=0;dashed=0;align=center;html=1;shape=mxgraph.mockup.buttons.button;strokeColor=#666666;fontColor=#ffffff;mainText=;buttonStyle=round;fontSize=17;fontStyle=1;fillColor=#008cff;whiteSpace=wrap;" parent="nSienLtsKH12aeZlyGIM-83" vertex="1">
          <mxGeometry x="510" y="260" width="150" height="30" as="geometry" />
        </mxCell>
        <mxCell id="nSienLtsKH12aeZlyGIM-98" value="Editar" style="strokeWidth=1;shadow=0;dashed=0;align=center;html=1;shape=mxgraph.mockup.buttons.button;strokeColor=#666666;fontColor=#ffffff;mainText=;buttonStyle=round;fontSize=17;fontStyle=1;fillColor=#008cff;whiteSpace=wrap;" parent="nSienLtsKH12aeZlyGIM-83" vertex="1">
          <mxGeometry x="510" y="310" width="150" height="30" as="geometry" />
        </mxCell>
        <mxCell id="nSienLtsKH12aeZlyGIM-89" value="Inativo" style="strokeWidth=1;shadow=0;dashed=0;align=center;html=1;shape=mxgraph.mockup.buttons.onOffButton;gradientColor=none;strokeColor=#999999;buttonState=on;fillColor2=#008cff;fontColor=#ffffff;fontSize=17;mainText=;spacingRight=40;fontStyle=1;whiteSpace=wrap;" parent="1" vertex="1">
          <mxGeometry x="410" y="480" width="160" height="30" as="geometry" />
        </mxCell>
      </root>
    </mxGraphModel>
  </diagram>
</mxfile>
